<svg width="689.7599609375px" height="215.639990234375px" xmlns="http://www.w3.org/2000/svg" viewBox="-94.87998046874998 -32.8199951171875 689.7599609375 215.639990234375" style="background: rgba(0, 0, 0, 0) none repeat scroll 0% 0%;" preserveAspectRatio="xMidYMid"><defs><filter id="editing-extrusion" x="-100%" y="-100%" width="300%" height="300%"><feFlood result="color1" flood-color="#444"></feFlood><feConvolveMatrix order="8,8" divisor="1" kernelMatrix="1 0 0 0 0 0 0 0 0 1 0 0 0 0 0 0 0 0 1 0 0 0 0 0 0 0 0 1 0 0 0 0 0 0 0 0 1 0 0 0 0 0 0 0 0 1 0 0 0 0 0 0 0 0 1 0 0 0 0 0 0 0 0 1" in="SourceAlpha" result="extrude"></feConvolveMatrix><feComposite in="color1" in2="extrude" result="comp-extrude" operator="in"></feComposite><feOffset dx="4" dy="4" in="comp-extrude" result="offset-extrude"></feOffset><feMerge><feMergeNode in="offset-extrude"></feMergeNode><feMergeNode in="SourceGraphic"></feMergeNode></feMerge></filter></defs><g filter="url(#editing-extrusion)"><g transform="translate(3.4982638359069824, 120.74999904632568)"><path d="M46.36-60.15L46.36-60.15L46.36-60.15Q50.39-64.66 57.34-64.66L57.34-64.66L57.34-64.66Q61.61-64.66 64.90-62.34L64.90-62.34L64.90-62.34Q68.20-60.02 68.20-55.69L68.20-55.69L68.20-55.69Q68.20-51.36 66.86-46.73L66.86-46.73L66.86-46.73Q65.51-42.09 63.44-37.33L63.44-37.33L63.44-37.33Q59.29-28.06 53.56-20.37L53.56-20.37L53.56-20.37Q45.51-9.27 37.76-3.42L37.76-3.42L37.76-3.42Q30.01 2.44 21.59 2.44L21.59 2.44L21.59 2.44Q14.76 2.44 10.61 0.85L10.61 0.85L10.61 0.85Q9.88-24.77 8.97-33.92L8.97-33.92L8.97-33.92Q8.05-43.07 7.32-48.07L7.32-48.07L7.32-48.07Q6.10-57.83 2.44-60.15L2.44-60.15L2.44-60.15Q5.25-62.59 7.99-63.62L7.99-63.62L7.99-63.62Q10.74-64.66 16.41-64.66L16.41-64.66L16.41-64.66Q22.08-64.66 26.11-60.21L26.11-60.21L26.11-60.21Q30.13-55.75 30.93-47.88L30.93-47.88L30.93-47.88Q31.72-40.02 31.72-30.50L31.72-30.50L31.72-30.50Q31.72-20.98 30.99-9.52L30.99-9.52L30.99-9.52Q34.77-12.20 38.80-20.37L38.80-20.37L38.80-20.37Q44.29-31.72 46.24-45.38L46.24-45.38L46.24-45.38Q46.85-49.53 46.85-53.92L46.85-53.92L46.85-53.92Q46.85-58.32 46.36-60.15ZM98.09 2.44L98.09 2.44L98.09 2.44Q71.25 2.44 71.25-22.81L71.25-22.81L71.25-22.81Q71.25-40.75 81.13-52.34L81.13-52.34L81.13-52.34Q91.62-64.66 109.80-64.66L109.80-64.66L109.80-64.66Q122.98-64.66 129.69-58.56L129.69-58.56L129.69-58.56Q136.40-52.46 136.40-39.65L136.40-39.65L136.40-39.65Q136.40-20.13 125.90-8.78L125.90-8.78L125.90-8.78Q115.66 2.44 98.09 2.44ZM101.26-50.63L101.26-50.63L101.26-50.63Q99.80-47.34 98.64-42.39L98.64-42.39L98.64-42.39Q97.48-37.45 96.01-29.65L96.01-29.65L96.01-29.65Q94.55-21.84 94.55-12.20L94.55-12.20L94.55-12.20Q94.55-9.03 95.59-6.95L95.59-6.95L95.59-6.95Q96.62-4.88 99.43-4.88L99.43-4.88L99.43-4.88Q102.24-4.88 104.00-6.22L104.00-6.22L104.00-6.22Q105.77-7.56 107.12-10.74L107.12-10.74L107.12-10.74Q109.56-16.35 111.51-26.78L111.51-26.78L111.51-26.78Q113.46-37.21 113.64-41.72L113.64-41.72L113.64-41.72Q113.83-46.24 113.83-49.59L113.83-49.59L113.83-49.59Q113.83-52.95 112.85-55.14L112.85-55.14L112.85-55.14Q111.87-57.34 109.13-57.34L109.13-57.34L109.13-57.34Q106.38-57.34 104.55-55.63L104.55-55.63L104.55-55.63Q102.72-53.92 101.26-50.63ZM172.87-6.71L172.87-6.71L172.87-6.71Q169.09 2.44 157.01 2.44L157.01 2.44L157.01 2.44Q150.79 2.44 146.89-1.83L146.89-1.83L146.89-1.83Q143.59-5.61 143.59-9.39L143.59-9.39L143.59-9.39Q143.59-19.28 148.11-38.55L148.11-38.55L152.62-62.22L177.39-64.66L169.95-26.11L169.95-26.11Q167.87-17.08 167.87-13.91L167.87-13.91L167.87-13.91Q167.87-6.95 172.87-6.71ZM154.82-79.18L154.82-79.18L154.82-79.18Q154.82-83.94 158.78-86.50L158.78-86.50L158.78-86.50Q162.75-89.06 168.48-89.06L168.48-89.06L168.48-89.06Q174.22-89.06 177.69-86.50L177.69-86.50L177.69-86.50Q181.17-83.94 181.17-79.18L181.17-79.18L181.17-79.18Q181.17-74.42 177.33-71.98L177.33-71.98L177.33-71.98Q173.48-69.54 167.75-69.54L167.75-69.54L167.75-69.54Q162.02-69.54 158.42-71.98L158.42-71.98L158.42-71.98Q154.82-74.42 154.82-79.18ZM243.15-50.75L243.15-50.75L243.15-50.75Q243.15-45.63 238.88-42.46L238.88-42.46L238.88-42.46Q234.61-39.28 227.65-39.28L227.65-39.28L227.65-39.28Q224.72-39.28 223.02-40.14L223.02-40.14L223.02-40.14Q224.36-43.31 224.78-47.27L224.78-47.27L224.78-47.27Q225.21-51.24 225.21-52.34L225.21-52.34L225.21-52.34Q225.21-57.46 221.67-57.46L221.67-57.46L221.67-57.46Q219.23-57.46 216.49-54.41L216.49-54.41L216.49-54.41Q213.74-51.36 211.43-46.60L211.43-46.60L211.43-46.60Q206.30-35.62 206.30-24.52L206.30-24.52L206.30-24.52Q206.30-18.42 208.62-15.68L208.62-15.68L208.62-15.68Q210.94-12.93 216.06-12.93L216.06-12.93L216.06-12.93Q223.14-12.93 228.75-18.79L228.75-18.79L228.75-18.79Q230.34-20.62 231.19-22.69L231.19-22.69L231.19-22.69Q235.83-20.25 235.83-13.54L235.83-13.54L235.83-13.54Q235.83-6.71 228.26-2.20L228.26-2.20L228.26-2.20Q220.45 2.44 208.01 2.44L208.01 2.44L208.01 2.44Q183.24 2.44 183.24-23.79L183.24-23.79L183.24-23.79Q183.24-42.94 194.10-53.92L194.10-53.92L194.10-53.92Q204.59-64.66 223.87-64.66L223.87-64.66L223.87-64.66Q243.15-64.66 243.15-50.75ZM295.85-20.62L295.85-20.62L295.85-20.62Q298.90-18.54 298.90-13.97L298.90-13.97L298.90-13.97Q298.90-9.39 296.58-6.47L296.58-6.47L296.58-6.47Q294.26-3.54 290.48-1.59L290.48-1.59L290.48-1.59Q282.67 2.44 274.26 2.44L274.26 2.44L274.26 2.44Q265.84 2.44 260.90 0.61L260.90 0.61L260.90 0.61Q255.96-1.22 252.66-4.64L252.66-4.64L252.66-4.64Q246.20-11.10 246.20-22.94L246.20-22.94L246.20-22.94Q246.20-41.36 256.20-52.58L256.20-52.58L256.20-52.58Q266.94-64.66 285.60-64.66L285.60-64.66L285.60-64.66Q297.19-64.66 302.93-59.78L302.93-59.78L302.93-59.78Q307.20-56.12 307.20-50.14L307.20-50.14L307.20-50.14Q307.20-28.67 270.11-28.67L270.11-28.67L270.11-28.67Q269.62-25.50 269.62-22.81L269.62-22.81L269.62-22.81Q269.62-17.20 272.12-15.07L272.12-15.07L272.12-15.07Q274.62-12.93 279.26-12.93L279.26-12.93L279.26-12.93Q283.89-12.93 288.83-15.07L288.83-15.07L288.83-15.07Q293.78-17.20 295.85-20.62ZM270.96-33.92L270.96-33.92L270.96-33.92Q279.62-33.92 284.63-39.28L284.63-39.28L284.63-39.28Q289.63-44.41 289.63-52.58L289.63-52.58L289.63-52.58Q289.63-55.39 288.59-56.91L288.59-56.91L288.59-56.91Q287.55-58.44 285.48-58.44L285.48-58.44L285.48-58.44Q283.41-58.44 281.64-57.64L281.64-57.64L281.64-57.64Q279.87-56.85 278.04-54.17L278.04-54.17L278.04-54.17Q273.52-48.07 270.96-33.92ZM358.92-70.76L358.92-70.76L358.92-70.76Q360.63-73.69 360.63-76.86L360.63-76.86L360.63-76.86Q360.63-82.47 357.22-82.47L357.22-82.47L357.22-82.47Q351.97-82.47 349.77-71.74L349.77-71.74L347.94-62.22L359.05-62.22L358.31-56.73L346.85-56.73L335.87 0L311.22 2.44L322.93-56.73L314.27-56.73L315.37-62.22L323.91-62.22L326.47-71.86L326.47-71.86Q328.67-80.76 338.06-84.91L338.06-84.91L338.06-84.91Q344.89-87.84 356.36-87.84L356.36-87.84L356.36-87.84Q367.83-87.84 372.95-84.91L372.95-84.91L372.95-84.91Q378.08-81.98 378.08-78.08L378.08-78.08L378.08-78.08Q378.08-74.18 375.03-71.74L375.03-71.74L375.03-71.74Q371.98-69.30 368.56-69.30L368.56-69.30L368.56-69.30Q361.85-69.30 358.92-70.76ZM383.57 2.44L383.57 2.44L383.57 2.44Q356.73 2.44 356.73-22.81L356.73-22.81L356.73-22.81Q356.73-40.75 366.61-52.34L366.61-52.34L366.61-52.34Q377.10-64.66 395.28-64.66L395.28-64.66L395.28-64.66Q408.46-64.66 415.17-58.56L415.17-58.56L415.17-58.56Q421.88-52.46 421.88-39.65L421.88-39.65L421.88-39.65Q421.88-20.13 411.38-8.78L411.38-8.78L411.38-8.78Q401.14 2.44 383.57 2.44ZM386.74-50.63L386.74-50.63L386.74-50.63Q385.28-47.34 384.12-42.39L384.12-42.39L384.12-42.39Q382.96-37.45 381.49-29.65L381.49-29.65L381.49-29.65Q380.03-21.84 380.03-12.20L380.03-12.20L380.03-12.20Q380.03-9.03 381.07-6.95L381.07-6.95L381.07-6.95Q382.10-4.88 384.91-4.88L384.91-4.88L384.91-4.88Q387.72-4.88 389.48-6.22L389.48-6.22L389.48-6.22Q391.25-7.56 392.60-10.74L392.60-10.74L392.60-10.74Q395.04-16.35 396.99-26.78L396.99-26.78L396.99-26.78Q398.94-37.21 399.12-41.72L399.12-41.72L399.12-41.72Q399.31-46.24 399.31-49.59L399.31-49.59L399.31-49.59Q399.31-52.95 398.33-55.14L398.33-55.14L398.33-55.14Q397.35-57.34 394.61-57.34L394.61-57.34L394.61-57.34Q391.86-57.34 390.03-55.63L390.03-55.63L390.03-55.63Q388.20-53.92 386.74-50.63ZM467.26-34.28L467.26-34.28L467.26-34.28Q471.65-42.09 471.65-50.02L471.65-50.02L471.65-50.02Q471.65-55.27 467.87-55.27L467.87-55.27L467.87-55.27Q464.94-55.27 461.89-50.26L461.89-50.26L461.89-50.26Q458.72-45.26 457.74-38.80L457.74-38.80L451.40 0L426.15 2.44L438.59-62.22L458.72-64.66L456.52-52.34L456.52-52.34Q462.50-64.66 475.92-64.66L475.92-64.66L475.92-64.66Q483.00-64.66 486.84-61L486.84-61L486.84-61Q490.68-57.34 490.68-49.84L490.68-49.84L490.68-49.84Q490.68-42.33 485.74-37.58L485.74-37.58L485.74-37.58Q480.80-32.82 472.38-32.82L472.38-32.82L472.38-32.82Q468.72-32.82 467.26-34.28Z" fill="#ccc"></path></g></g><style>text {
  font-size: 64px;
  font-family: Arial Black;
  dominant-baseline: central;
  text-anchor: middle;
}</style></svg>