<?xml version="1.0" encoding="UTF-8" standalone="no"?>
<svg
   xmlns:dc="http://purl.org/dc/elements/1.1/"
   xmlns:cc="http://creativecommons.org/ns#"
   xmlns:rdf="http://www.w3.org/1999/02/22-rdf-syntax-ns#"
   xmlns:svg="http://www.w3.org/2000/svg"
   xmlns="http://www.w3.org/2000/svg"
   xmlns:sodipodi="http://sodipodi.sourceforge.net/DTD/sodipodi-0.dtd"
   xmlns:inkscape="http://www.inkscape.org/namespaces/inkscape"
   width="827.71655"
   height="151.18111"
   viewBox="0 0 219 40"
   version="1.1"
   id="svg8"
   inkscape:version="1.0.1 (3bc2e813f5, 2020-09-07)"
   sodipodi:docname="voicefor-dark.svg">
  <defs
     id="defs2" />
  <sodipodi:namedview
     id="base"
     pagecolor="#ffffff"
     bordercolor="#666666"
     borderopacity="1.0"
     inkscape:pageopacity="0.0"
     inkscape:pageshadow="2"
     inkscape:zoom="0.35"
     inkscape:cx="-150"
     inkscape:cy="560"
     inkscape:document-units="mm"
     inkscape:current-layer="layer1"
     inkscape:document-rotation="0"
     showgrid="false"
     units="px"
     inkscape:pagecheckerboard="false"
     inkscape:window-width="1372"
     inkscape:window-height="1015"
     inkscape:window-x="36"
     inkscape:window-y="99"
     inkscape:window-maximized="0" />
  <metadata
     id="metadata5">
    <rdf:RDF>
      <cc:Work
         rdf:about="">
        <dc:format>image/svg+xml</dc:format>
        <dc:type
           rdf:resource="http://purl.org/dc/dcmitype/StillImage" />
        <dc:title></dc:title>
      </cc:Work>
    </rdf:RDF>
  </metadata>
  <g
     inkscape:label="Layer 1"
     inkscape:groupmode="layer"
     id="layer1">
    <g
       aria-label="voicefor"
       transform="scale(1.0273402,0.97338739)"
       id="text20"
       style="font-size:46.4104px;line-height:1.55;font-family:'Courier New';-inkscape-font-specification:'Courier New';letter-spacing:0px;word-spacing:0px;fill:#f7fafc;fill-opacity:1;stroke-width:0.386754">
      <path
         d="M 18.698192,36.56863 10.251499,13.549072 h 6.218994 l 5.84771,17.4039 5.847711,-17.4039 h 6.218994 L 25.891804,36.56863 Z"
         style="font-style:normal;font-variant:normal;font-weight:bold;font-stretch:normal;font-size:46.4104px;font-family:'DM Sans';-inkscape-font-specification:'DM Sans Bold';fill:#f7fafc;fill-opacity:1;stroke-width:0.386754"
         id="path922" />
      <path
         d="m 48.075945,37.125555 q -3.341549,0 -6.033352,-1.531543 -2.645393,-1.531543 -4.223346,-4.223347 -1.531544,-2.738213 -1.531544,-6.311814 0,-3.573601 1.577954,-6.265404 1.577954,-2.738214 4.223346,-4.269757 2.691804,-1.531543 6.033352,-1.531543 3.295139,0 5.940532,1.531543 2.691803,1.531543 4.223346,4.269757 1.577954,2.691803 1.577954,6.265404 0,3.573601 -1.577954,6.311814 -1.531543,2.691804 -4.223346,4.223347 -2.691804,1.531543 -5.986942,1.531543 z m 0,-5.151554 q 2.32052,0 4.037705,-1.717185 1.717185,-1.763595 1.717185,-5.197965 0,-3.43437 -1.717185,-5.151555 -1.717185,-1.763595 -3.991295,-1.763595 -2.36693,0 -4.084115,1.763595 -1.670774,1.717185 -1.670774,5.151555 0,3.43437 1.670774,5.197965 1.717185,1.717185 4.037705,1.717185 z"
         style="font-style:normal;font-variant:normal;font-weight:bold;font-stretch:normal;font-size:46.4104px;font-family:'DM Sans';-inkscape-font-specification:'DM Sans Bold';fill:#f7fafc;fill-opacity:1;stroke-width:0.386754"
         id="path924" />
      <path
         d="m 68.357244,9.9754708 q -1.624364,0 -2.691803,-0.9746184 -1.021029,-0.9746184 -1.021029,-2.4597512 0,-1.4851328 1.021029,-2.4133409 1.067439,-0.9746184 2.691803,-0.9746184 1.624364,0 2.645393,0.9746184 1.067439,0.9282081 1.067439,2.4133409 0,1.4851328 -1.067439,2.4597512 -1.021029,0.9746184 -2.645393,0.9746184 z M 65.386978,36.56863 V 13.549072 H 71.32751 V 36.56863 Z"
         style="font-style:normal;font-variant:normal;font-weight:bold;font-stretch:normal;font-size:46.4104px;font-family:'DM Sans';-inkscape-font-specification:'DM Sans Bold';fill:#f7fafc;fill-opacity:1;stroke-width:0.386754"
         id="path926" />
      <path
         d="m 88.824148,37.125555 q -3.52719,0 -6.218993,-1.531543 -2.691803,-1.531543 -4.269757,-4.269757 -1.531543,-2.738214 -1.531543,-6.265404 0,-3.527191 1.531543,-6.265404 1.577954,-2.738214 4.269757,-4.269757 2.691803,-1.531543 6.218993,-1.531543 4.408988,0 7.425664,2.32052 3.016677,2.274109 3.852068,6.311814 h -6.265408 q -0.464104,-1.670774 -1.856416,-2.598982 -1.345902,-0.974619 -3.202318,-0.974619 -2.459751,0 -4.176936,1.856416 -1.717185,1.856416 -1.717185,5.151555 0,3.295138 1.717185,5.151554 1.717185,1.856416 4.176936,1.856416 1.856416,0 3.202318,-0.928208 1.392312,-0.928208 1.856416,-2.645392 h 6.265408 q -0.835391,3.898473 -3.852068,6.265404 -3.016676,2.36693 -7.425664,2.36693 z"
         style="font-style:normal;font-variant:normal;font-weight:bold;font-stretch:normal;font-size:46.4104px;font-family:'DM Sans';-inkscape-font-specification:'DM Sans Bold';fill:#f7fafc;fill-opacity:1;stroke-width:0.386754"
         id="path928" />
      <path
         d="m 116.5775,37.125555 q -3.48078,0 -6.17259,-1.485133 -2.6918,-1.485133 -4.22334,-4.176936 -1.53155,-2.691803 -1.53155,-6.218993 0,-3.573601 1.48514,-6.358225 1.53154,-2.784624 4.17693,-4.316168 2.69181,-1.577953 6.31182,-1.577953 3.38796,0 5.98694,1.485133 2.59898,1.485132 4.0377,4.084115 1.48514,2.552572 1.48514,5.708479 0,0.510515 -0.0464,1.067439 0,0.556925 -0.0464,1.16026 h -17.49673 q 0.18565,2.691804 1.85642,4.223347 1.71718,1.531543 4.13053,1.531543 1.81,0 3.01667,-0.788977 1.25308,-0.835387 1.85642,-2.134878 h 6.03335 q -0.64975,2.181289 -2.18129,3.991294 -1.48513,1.763595 -3.71283,2.784624 -2.18129,1.021029 -4.96591,1.021029 z m 0.0464,-19.306727 q -2.18129,0 -3.85207,1.253081 -1.67077,1.206671 -2.13488,3.712832 h 11.46337 q -0.13923,-2.274109 -1.67077,-3.620011 -1.53154,-1.345902 -3.80565,-1.345902 z"
         style="font-style:normal;font-variant:normal;font-weight:bold;font-stretch:normal;font-size:46.4104px;font-family:'DM Sans';-inkscape-font-specification:'DM Sans Bold';fill:#f7fafc;fill-opacity:1;stroke-width:0.386754"
         id="path930" />
      <path
         d="M 134.21343,36.56863 V 18.514984 h -3.15591 v -4.965912 h 3.15591 v -2.691804 q 0,-4.1769356 2.08847,-5.9405308 2.13488,-1.7635953 5.75489,-1.7635953 h 2.55257 V 8.2118756 H 142.985 q -1.53155,0 -2.18129,0.6033352 -0.64975,0.6033352 -0.64975,2.0420572 v 2.691804 h 4.96592 v 4.965912 h -4.96592 V 36.56863 Z"
         style="font-style:normal;font-variant:normal;font-weight:bold;font-stretch:normal;font-size:46.4104px;font-family:'DM Sans';-inkscape-font-specification:'DM Sans Bold';fill:#f7fafc;fill-opacity:1;stroke-width:0.386754"
         id="path932" />
      <path
         d="m 159.92473,37.125555 q -3.34155,0 -6.03335,-1.531543 -2.64539,-1.531543 -4.22335,-4.223347 -1.53154,-2.738213 -1.53154,-6.311814 0,-3.573601 1.57795,-6.265404 1.57796,-2.738214 4.22335,-4.269757 2.6918,-1.531543 6.03335,-1.531543 3.29514,0 5.94053,1.531543 2.69181,1.531543 4.22335,4.269757 1.57795,2.691803 1.57795,6.265404 0,3.573601 -1.57795,6.311814 -1.53154,2.691804 -4.22335,4.223347 -2.6918,1.531543 -5.98694,1.531543 z m 0,-5.151554 q 2.32052,0 4.03771,-1.717185 1.71718,-1.763595 1.71718,-5.197965 0,-3.43437 -1.71718,-5.151555 -1.71719,-1.763595 -3.9913,-1.763595 -2.36693,0 -4.08411,1.763595 -1.67078,1.717185 -1.67078,5.151555 0,3.43437 1.67078,5.197965 1.71718,1.717185 4.0377,1.717185 z"
         style="font-style:normal;font-variant:normal;font-weight:bold;font-stretch:normal;font-size:46.4104px;font-family:'DM Sans';-inkscape-font-specification:'DM Sans Bold';fill:#f7fafc;fill-opacity:1;stroke-width:0.386754"
         id="path934" />
      <path
         d="M 177.00372,36.56863 V 13.549072 h 5.29079 l 0.55692,4.316167 q 1.25308,-2.227699 3.38796,-3.527191 2.18129,-1.345901 5.10514,-1.345901 v 6.265404 h -1.67077 q -1.94924,0 -3.48078,0.603335 -1.53154,0.603335 -2.41334,2.088468 -0.83539,1.485133 -0.83539,4.130526 v 10.48875 z"
         style="font-style:normal;font-variant:normal;font-weight:bold;font-stretch:normal;font-size:46.4104px;font-family:'DM Sans';-inkscape-font-specification:'DM Sans Bold';fill:#f7fafc;fill-opacity:1;stroke-width:0.386754"
         id="path936" />
    </g>
  </g>
</svg>
