<svg width="556.3800048828125px" height="162.88001708984373px" xmlns="http://www.w3.org/2000/svg" viewBox="-28.19000244140625 -6.4400085449218665 556.3800048828125 162.88001708984373" style="background: rgba(0, 0, 0, 0) none repeat scroll 0% 0%;" preserveAspectRatio="xMidYMid"><defs><linearGradient id="editing-outline-gradient" x1="-0.41354545764260087" x2="1.4135454576426008" y1="0.09326335692419985" y2="0.9067366430758002"><stop offset="0" stop-color="#ee4208"></stop><stop offset="1" stop-color="#4139ff"></stop></linearGradient><filter id="editing-outline" x="-100%" y="-100%" width="300%" height="300%"><feMorphology in="SourceGraphic" operator="dilate" radius="1" result="outline"></feMorphology><feComposite operator="out" in="outline" in2="SourceAlpha"></feComposite></filter></defs><g filter="url(#editing-outline)"><g transform="translate(51.88592529296875, 108.37500190734863)"><path d="M3.74-55.18L3.74-55.18L3.74-55.18Q6.32-60.52 13.48-60.52L13.48-60.52L13.48-60.52Q20.65-60.52 23.99-56.38L23.99-56.38L23.99-56.38Q27.32-52.24 27.32-42.72L27.32-42.72L27.32-10.95L48.95-58.65L59.54-58.65L31.86 0L11.04 0L8.37-42.72L8.37-42.72Q8.10-47.44 6.81-50.64L6.81-50.64L6.81-50.64Q5.52-53.84 3.74-55.18ZM73.96 1.78L73.96 1.78L73.96 1.78Q54.38 1.78 54.38-16.64L54.38-16.64L54.38-16.64Q54.38-29.73 61.59-38.18L61.59-38.18L61.59-38.18Q69.24-47.17 82.50-47.17L82.50-47.17L82.50-47.17Q92.11-47.17 97.01-42.72L97.01-42.72L97.01-42.72Q101.91-38.27 101.91-28.92L101.91-28.92L101.91-28.92Q101.91-14.68 94.25-6.41L94.25-6.41L94.25-6.41Q86.78 1.78 73.96 1.78ZM76.27-36.93L76.27-36.93L76.27-36.93Q75.20-34.53 74.36-30.93L74.36-30.93L74.36-30.93Q73.51-27.32 72.45-21.63L72.45-21.63L72.45-21.63Q71.38-15.93 71.38-8.90L71.38-8.90L71.38-8.90Q71.38-6.59 72.13-5.07L72.13-5.07L72.13-5.07Q72.89-3.56 74.94-3.56L74.94-3.56L74.94-3.56Q76.98-3.56 78.28-4.54L78.28-4.54L78.28-4.54Q79.57-5.52 80.54-7.83L80.54-7.83L80.54-7.83Q82.32-11.93 83.75-19.54L83.75-19.54L83.75-19.54Q85.17-27.14 85.31-30.44L85.31-30.44L85.31-30.44Q85.44-33.73 85.44-36.18L85.44-36.18L85.44-36.18Q85.44-38.63 84.73-40.23L84.73-40.23L84.73-40.23Q84.02-41.83 82.01-41.83L82.01-41.83L82.01-41.83Q80.01-41.83 78.68-40.58L78.68-40.58L78.68-40.58Q77.34-39.34 76.27-36.93ZM128.52-4.89L128.52-4.89L128.52-4.89Q125.76 1.78 116.95 1.78L116.95 1.78L116.95 1.78Q112.41 1.78 109.56-1.33L109.56-1.33L109.56-1.33Q107.16-4.09 107.16-6.85L107.16-6.85L107.16-6.85Q107.16-14.06 110.45-28.12L110.45-28.12L113.74-45.39L131.81-47.17L126.38-19.05L126.38-19.05Q124.87-12.46 124.87-10.15L124.87-10.15L124.87-10.15Q124.87-5.07 128.52-4.89ZM115.34-57.76L115.34-57.76L115.34-57.76Q115.34-61.23 118.24-63.10L118.24-63.10L118.24-63.10Q121.13-64.97 125.31-64.97L125.31-64.97L125.31-64.97Q129.50-64.97 132.03-63.10L132.03-63.10L132.03-63.10Q134.57-61.23 134.57-57.76L134.57-57.76L134.57-57.76Q134.57-54.29 131.76-52.51L131.76-52.51L131.76-52.51Q128.96-50.73 124.78-50.73L124.78-50.73L124.78-50.73Q120.59-50.73 117.97-52.51L117.97-52.51L117.97-52.51Q115.34-54.29 115.34-57.76ZM179.78-37.02L179.78-37.02L179.78-37.02Q179.78-33.29 176.66-30.97L176.66-30.97L176.66-30.97Q173.55-28.66 168.48-28.66L168.48-28.66L168.48-28.66Q166.34-28.66 165.09-29.28L165.09-29.28L165.09-29.28Q166.07-31.59 166.39-34.49L166.39-34.49L166.39-34.49Q166.70-37.38 166.70-38.18L166.70-38.18L166.70-38.18Q166.70-41.92 164.12-41.92L164.12-41.92L164.12-41.92Q162.34-41.92 160.33-39.69L160.33-39.69L160.33-39.69Q158.33-37.47 156.64-34.00L156.64-34.00L156.64-34.00Q152.90-25.99 152.90-17.89L152.90-17.89L152.90-17.89Q152.90-13.44 154.59-11.44L154.59-11.44L154.59-11.44Q156.28-9.43 160.02-9.43L160.02-9.43L160.02-9.43Q165.18-9.43 169.28-13.71L169.28-13.71L169.28-13.71Q170.43-15.04 171.06-16.55L171.06-16.55L171.06-16.55Q174.44-14.77 174.44-9.88L174.44-9.88L174.44-9.88Q174.44-4.89 168.92-1.60L168.92-1.60L168.92-1.60Q163.23 1.78 154.15 1.78L154.15 1.78L154.15 1.78Q136.08 1.78 136.08-17.36L136.08-17.36L136.08-17.36Q136.08-31.33 144.00-39.34L144.00-39.34L144.00-39.34Q151.66-47.17 165.72-47.17L165.72-47.17L165.72-47.17Q179.78-47.17 179.78-37.02ZM218.23-15.04L218.23-15.04L218.23-15.04Q220.45-13.53 220.45-10.19L220.45-10.19L220.45-10.19Q220.45-6.85 218.76-4.72L218.76-4.72L218.76-4.72Q217.07-2.58 214.31-1.16L214.31-1.16L214.31-1.16Q208.62 1.78 202.47 1.78L202.47 1.78L202.47 1.78Q196.33 1.78 192.73 0.44L192.73 0.44L192.73 0.44Q189.13-0.89 186.72-3.38L186.72-3.38L186.72-3.38Q182.00-8.10 182.00-16.73L182.00-16.73L182.00-16.73Q182.00-30.17 189.30-38.36L189.30-38.36L189.30-38.36Q197.13-47.17 210.75-47.17L210.75-47.17L210.75-47.17Q219.21-47.17 223.39-43.61L223.39-43.61L223.39-43.61Q226.50-40.94 226.50-36.58L226.50-36.58L226.50-36.58Q226.50-20.91 199.45-20.91L199.45-20.91L199.45-20.91Q199.09-18.60 199.09-16.64L199.09-16.64L199.09-16.64Q199.09-12.55 200.92-10.99L200.92-10.99L200.92-10.99Q202.74-9.43 206.12-9.43L206.12-9.43L206.12-9.43Q209.51-9.43 213.11-10.99L213.11-10.99L213.11-10.99Q216.71-12.55 218.23-15.04ZM200.07-24.74L200.07-24.74L200.07-24.74Q206.39-24.74 210.04-28.66L210.04-28.66L210.04-28.66Q213.69-32.40 213.69-38.36L213.69-38.36L213.69-38.36Q213.69-40.41 212.93-41.52L212.93-41.52L212.93-41.52Q212.18-42.63 210.66-42.63L210.66-42.63L210.66-42.63Q209.15-42.63 207.86-42.05L207.86-42.05L207.86-42.05Q206.57-41.47 205.23-39.52L205.23-39.52L205.23-39.52Q201.94-35.07 200.07-24.74ZM288.36-47.17L288.36-47.17L288.36-47.17Q281.15-47.17 275.90-49.57L275.90-49.57L273.05-35.16L290.23-35.16L290.23-35.16Q290.23-30.44 287.87-27.46L287.87-27.46L287.87-27.46Q285.51-24.47 281.24-24.47L281.24-24.47L281.24-24.47Q276.61-24.47 272.34-26.17L272.34-26.17L272.34-26.17Q271.45-26.52 271.36-26.61L271.36-26.61L266.29 0L246.89 0L258.19-58.74L297.88-58.74L297.88-58.74Q297.88-53.31 295.35-50.24L295.35-50.24L295.35-50.24Q292.81-47.17 288.36-47.17ZM314.44 1.78L314.44 1.78L314.44 1.78Q294.86 1.78 294.86-16.64L294.86-16.64L294.86-16.64Q294.86-29.73 302.07-38.18L302.07-38.18L302.07-38.18Q309.72-47.17 322.98-47.17L322.98-47.17L322.98-47.17Q332.59-47.17 337.49-42.72L337.49-42.72L337.49-42.72Q342.38-38.27 342.38-28.92L342.38-28.92L342.38-28.92Q342.38-14.68 334.73-6.41L334.73-6.41L334.73-6.41Q327.25 1.78 314.44 1.78ZM316.75-36.93L316.75-36.93L316.75-36.93Q315.68-34.53 314.84-30.93L314.84-30.93L314.84-30.93Q313.99-27.32 312.92-21.63L312.92-21.63L312.92-21.63Q311.86-15.93 311.86-8.90L311.86-8.90L311.86-8.90Q311.86-6.59 312.61-5.07L312.61-5.07L312.61-5.07Q313.37-3.56 315.42-3.56L315.42-3.56L315.42-3.56Q317.46-3.56 318.75-4.54L318.75-4.54L318.75-4.54Q320.04-5.52 321.02-7.83L321.02-7.83L321.02-7.83Q322.80-11.93 324.23-19.54L324.23-19.54L324.23-19.54Q325.65-27.14 325.78-30.44L325.78-30.44L325.78-30.44Q325.92-33.73 325.92-36.18L325.92-36.18L325.92-36.18Q325.92-38.63 325.21-40.23L325.21-40.23L325.21-40.23Q324.49-41.83 322.49-41.83L322.49-41.83L322.49-41.83Q320.49-41.83 319.15-40.58L319.15-40.58L319.15-40.58Q317.82-39.34 316.75-36.93ZM375.49-25.01L375.49-25.01L375.49-25.01Q378.69-30.70 378.69-36.49L378.69-36.49L378.69-36.49Q378.69-40.32 375.94-40.32L375.94-40.32L375.94-40.32Q373.80-40.32 371.57-36.67L371.57-36.67L371.57-36.67Q369.26-33.02 368.55-28.30L368.55-28.30L363.92 0L345.50 1.78L354.58-45.39L369.26-47.17L367.66-38.18L367.66-38.18Q372.02-47.17 381.81-47.17L381.81-47.17L381.81-47.17Q386.97-47.17 389.78-44.50L389.78-44.50L389.78-44.50Q392.58-41.83 392.58-36.36L392.58-36.36L392.58-36.36Q392.58-30.88 388.97-27.41L388.97-27.41L388.97-27.41Q385.37-23.94 379.23-23.94L379.23-23.94L379.23-23.94Q376.56-23.94 375.49-25.01Z" fill="url(#editing-outline-gradient)"></path></g></g><style>text {
  font-size: 64px;
  font-family: Arial Black;
  dominant-baseline: central;
  text-anchor: middle;
}</style></svg>