<svg width="372.48000488281247px" height="124.439990234375px" xmlns="http://www.w3.org/2000/svg" viewBox="63.75999755859377 12.780004882812499 372.48000488281247 124.439990234375" style="background: rgba(0, 0, 0, 0) none repeat scroll 0% 0%;" preserveAspectRatio="xMidYMid"><defs><filter id="editing-vr"><feFlood flood-color="#f00" flood-opacity="0.7" result="c1"></feFlood><feFlood flood-color="#00f" flood-opacity="0.7" result="c3"></feFlood><feComposite operator="in" in="c1" in2="SourceAlpha" result="text-c1"></feComposite><feComposite operator="in" in="c3" in2="SourceAlpha" result="text-c3"></feComposite><feOffset in="text-c1" dx="5" dy="-1" result="text1"></feOffset><feOffset in="text-c3" dx="-5" dy="1" result="text3"></feOffset><feBlend in="SourceGraphic" in2="text1" mode="multiply" result="text4"></feBlend><feBlend in="text4" in2="text3" mode="multiply"></feBlend></filter></defs><g filter="url(#editing-vr)"><g transform="translate(120.68370819091797, 99)"><path d="M24.32-31.55L24.32-31.55L24.32-31.55Q26.43-33.92 30.08-33.92L30.08-33.92L30.08-33.92Q32.32-33.92 34.05-32.70L34.05-32.70L34.05-32.70Q35.78-31.49 35.78-29.22L35.78-29.22L35.78-29.22Q35.78-26.94 35.07-24.51L35.07-24.51L35.07-24.51Q34.37-22.08 33.28-19.58L33.28-19.58L33.28-19.58Q31.10-14.72 28.10-10.69L28.10-10.69L28.10-10.69Q23.87-4.86 19.81-1.79L19.81-1.79L19.81-1.79Q15.74 1.28 11.33 1.28L11.33 1.28L11.33 1.28Q7.74 1.28 5.57 0.45L5.57 0.45L5.57 0.45Q5.18-12.99 4.70-17.79L4.70-17.79L4.70-17.79Q4.22-22.59 3.84-25.22L3.84-25.22L3.84-25.22Q3.20-30.34 1.28-31.55L1.28-31.55L1.28-31.55Q2.75-32.83 4.19-33.38L4.19-33.38L4.19-33.38Q5.63-33.92 8.61-33.92L8.61-33.92L8.61-33.92Q11.58-33.92 13.70-31.58L13.70-31.58L13.70-31.58Q15.81-29.25 16.22-25.12L16.22-25.12L16.22-25.12Q16.64-20.99 16.64-16L16.64-16L16.64-16Q16.64-11.01 16.26-4.99L16.26-4.99L16.26-4.99Q18.24-6.40 20.35-10.69L20.35-10.69L20.35-10.69Q23.23-16.64 24.26-23.81L24.26-23.81L24.26-23.81Q24.58-25.98 24.58-28.29L24.58-28.29L24.58-28.29Q24.58-30.59 24.32-31.55ZM51.46 1.28L51.46 1.28L51.46 1.28Q37.38 1.28 37.38-11.97L37.38-11.97L37.38-11.97Q37.38-21.38 42.56-27.46L42.56-27.46L42.56-27.46Q48.06-33.92 57.60-33.92L57.60-33.92L57.60-33.92Q64.51-33.92 68.03-30.72L68.03-30.72L68.03-30.72Q71.55-27.52 71.55-20.80L71.55-20.80L71.55-20.80Q71.55-10.56 66.05-4.61L66.05-4.61L66.05-4.61Q60.67 1.28 51.46 1.28ZM53.12-26.56L53.12-26.56L53.12-26.56Q52.35-24.83 51.74-22.24L51.74-22.24L51.74-22.24Q51.14-19.65 50.37-15.55L50.37-15.55L50.37-15.55Q49.60-11.46 49.60-6.40L49.60-6.40L49.60-6.40Q49.60-4.74 50.14-3.65L50.14-3.65L50.14-3.65Q50.69-2.56 52.16-2.56L52.16-2.56L52.16-2.56Q53.63-2.56 54.56-3.26L54.56-3.26L54.56-3.26Q55.49-3.97 56.19-5.63L56.19-5.63L56.19-5.63Q57.47-8.58 58.50-14.05L58.50-14.05L58.50-14.05Q59.52-19.52 59.62-21.89L59.62-21.89L59.62-21.89Q59.71-24.26 59.71-26.02L59.71-26.02L59.71-26.02Q59.71-27.78 59.20-28.93L59.20-28.93L59.20-28.93Q58.69-30.08 57.25-30.08L57.25-30.08L57.25-30.08Q55.81-30.08 54.85-29.18L54.85-29.18L54.85-29.18Q53.89-28.29 53.12-26.56ZM90.69-3.52L90.69-3.52L90.69-3.52Q88.70 1.28 82.37 1.28L82.37 1.28L82.37 1.28Q79.10 1.28 77.06-0.96L77.06-0.96L77.06-0.96Q75.33-2.94 75.33-4.93L75.33-4.93L75.33-4.93Q75.33-10.11 77.70-20.22L77.70-20.22L80.06-32.64L93.06-33.92L89.15-13.70L89.15-13.70Q88.06-8.96 88.06-7.30L88.06-7.30L88.06-7.30Q88.06-3.65 90.69-3.52ZM81.22-41.54L81.22-41.54L81.22-41.54Q81.22-44.03 83.30-45.38L83.30-45.38L83.30-45.38Q85.38-46.72 88.38-46.72L88.38-46.72L88.38-46.72Q91.39-46.72 93.22-45.38L93.22-45.38L93.22-45.38Q95.04-44.03 95.04-41.54L95.04-41.54L95.04-41.54Q95.04-39.04 93.02-37.76L93.02-37.76L93.02-37.76Q91.01-36.48 88.00-36.48L88.00-36.48L88.00-36.48Q84.99-36.48 83.10-37.76L83.10-37.76L83.10-37.76Q81.22-39.04 81.22-41.54ZM127.55-26.62L127.55-26.62L127.55-26.62Q127.55-23.94 125.31-22.27L125.31-22.27L125.31-22.27Q123.07-20.61 119.42-20.61L119.42-20.61L119.42-20.61Q117.89-20.61 116.99-21.06L116.99-21.06L116.99-21.06Q117.70-22.72 117.92-24.80L117.92-24.80L117.92-24.80Q118.14-26.88 118.14-27.46L118.14-27.46L118.14-27.46Q118.14-30.14 116.29-30.14L116.29-30.14L116.29-30.14Q115.01-30.14 113.57-28.54L113.57-28.54L113.57-28.54Q112.13-26.94 110.91-24.45L110.91-24.45L110.91-24.45Q108.22-18.69 108.22-12.86L108.22-12.86L108.22-12.86Q108.22-9.66 109.44-8.22L109.44-8.22L109.44-8.22Q110.66-6.78 113.34-6.78L113.34-6.78L113.34-6.78Q117.06-6.78 120-9.86L120-9.86L120-9.86Q120.83-10.82 121.28-11.90L121.28-11.90L121.28-11.90Q123.71-10.62 123.71-7.10L123.71-7.10L123.71-7.10Q123.71-3.52 119.74-1.15L119.74-1.15L119.74-1.15Q115.65 1.28 109.12 1.28L109.12 1.28L109.12 1.28Q96.13 1.28 96.13-12.48L96.13-12.48L96.13-12.48Q96.13-22.53 101.82-28.29L101.82-28.29L101.82-28.29Q107.33-33.92 117.44-33.92L117.44-33.92L117.44-33.92Q127.55-33.92 127.55-26.62ZM155.20-10.82L155.20-10.82L155.20-10.82Q156.80-9.73 156.80-7.33L156.80-7.33L156.80-7.33Q156.80-4.93 155.58-3.39L155.58-3.39L155.58-3.39Q154.37-1.86 152.38-0.83L152.38-0.83L152.38-0.83Q148.29 1.28 143.87 1.28L143.87 1.28L143.87 1.28Q139.46 1.28 136.86 0.32L136.86 0.32L136.86 0.32Q134.27-0.64 132.54-2.43L132.54-2.43L132.54-2.43Q129.15-5.82 129.15-12.03L129.15-12.03L129.15-12.03Q129.15-21.70 134.40-27.58L134.40-27.58L134.40-27.58Q140.03-33.92 149.82-33.92L149.82-33.92L149.82-33.92Q155.90-33.92 158.91-31.36L158.91-31.36L158.91-31.36Q161.15-29.44 161.15-26.30L161.15-26.30L161.15-26.30Q161.15-15.04 141.70-15.04L141.70-15.04L141.70-15.04Q141.44-13.38 141.44-11.97L141.44-11.97L141.44-11.97Q141.44-9.02 142.75-7.90L142.75-7.90L142.75-7.90Q144.06-6.78 146.50-6.78L146.50-6.78L146.50-6.78Q148.93-6.78 151.52-7.90L151.52-7.90L151.52-7.90Q154.11-9.02 155.20-10.82ZM142.14-17.79L142.14-17.79L142.14-17.79Q146.69-17.79 149.31-20.61L149.31-20.61L149.31-20.61Q151.94-23.30 151.94-27.58L151.94-27.58L151.94-27.58Q151.94-29.06 151.39-29.86L151.39-29.86L151.39-29.86Q150.85-30.66 149.76-30.66L149.76-30.66L149.76-30.66Q148.67-30.66 147.74-30.24L147.74-30.24L147.74-30.24Q146.82-29.82 145.86-28.42L145.86-28.42L145.86-28.42Q143.49-25.22 142.14-17.79ZM188.29-37.12L188.29-37.12L188.29-37.12Q189.18-38.66 189.18-40.32L189.18-40.32L189.18-40.32Q189.18-43.26 187.39-43.26L187.39-43.26L187.39-43.26Q184.64-43.26 183.49-37.63L183.49-37.63L182.53-32.64L188.35-32.64L187.97-29.76L181.95-29.76L176.19 0L163.26 1.28L169.41-29.76L164.86-29.76L165.44-32.64L169.92-32.64L171.26-37.70L171.26-37.70Q172.42-42.37 177.34-44.54L177.34-44.54L177.34-44.54Q180.93-46.08 186.94-46.08L186.94-46.08L186.94-46.08Q192.96-46.08 195.65-44.54L195.65-44.54L195.65-44.54Q198.34-43.01 198.34-40.96L198.34-40.96L198.34-40.96Q198.34-38.91 196.74-37.63L196.74-37.63L196.74-37.63Q195.14-36.35 193.34-36.35L193.34-36.35L193.34-36.35Q189.82-36.35 188.29-37.12ZM201.22 1.28L201.22 1.28L201.22 1.28Q187.14 1.28 187.14-11.97L187.14-11.97L187.14-11.97Q187.14-21.38 192.32-27.46L192.32-27.46L192.32-27.46Q197.82-33.92 207.36-33.92L207.36-33.92L207.36-33.92Q214.27-33.92 217.79-30.72L217.79-30.72L217.79-30.72Q221.31-27.52 221.31-20.80L221.31-20.80L221.31-20.80Q221.31-10.56 215.81-4.61L215.81-4.61L215.81-4.61Q210.43 1.28 201.22 1.28ZM202.88-26.56L202.88-26.56L202.88-26.56Q202.11-24.83 201.50-22.24L201.50-22.24L201.50-22.24Q200.90-19.65 200.13-15.55L200.13-15.55L200.13-15.55Q199.36-11.46 199.36-6.40L199.36-6.40L199.36-6.40Q199.36-4.74 199.90-3.65L199.90-3.65L199.90-3.65Q200.45-2.56 201.92-2.56L201.92-2.56L201.92-2.56Q203.39-2.56 204.32-3.26L204.32-3.26L204.32-3.26Q205.25-3.97 205.95-5.63L205.95-5.63L205.95-5.63Q207.23-8.58 208.26-14.05L208.26-14.05L208.26-14.05Q209.28-19.52 209.38-21.89L209.38-21.89L209.38-21.89Q209.47-24.26 209.47-26.02L209.47-26.02L209.47-26.02Q209.47-27.78 208.96-28.93L208.96-28.93L208.96-28.93Q208.45-30.08 207.01-30.08L207.01-30.08L207.01-30.08Q205.57-30.08 204.61-29.18L204.61-29.18L204.61-29.18Q203.65-28.29 202.88-26.56ZM245.12-17.98L245.12-17.98L245.12-17.98Q247.42-22.08 247.42-26.24L247.42-26.24L247.42-26.24Q247.42-28.99 245.44-28.99L245.44-28.99L245.44-28.99Q243.90-28.99 242.30-26.37L242.30-26.37L242.30-26.37Q240.64-23.74 240.13-20.35L240.13-20.35L236.80 0L223.55 1.28L230.08-32.64L240.64-33.92L239.49-27.46L239.49-27.46Q242.62-33.92 249.66-33.92L249.66-33.92L249.66-33.92Q253.38-33.92 255.39-32L255.39-32L255.39-32Q257.41-30.08 257.41-26.14L257.41-26.14L257.41-26.14Q257.41-22.21 254.82-19.71L254.82-19.71L254.82-19.71Q252.22-17.22 247.81-17.22L247.81-17.22L247.81-17.22Q245.89-17.22 245.12-17.98Z" fill="#444"></path></g></g><style>text {
  font-size: 64px;
  font-family: Arial Black;
  dominant-baseline: central;
  text-anchor: middle;
}</style></svg>